/* XPM */
static char *_9993_f35a9c9d956ae413f5e0c9a93a78f805022e3305cbff9d82d82f5f109428a53f[] = {
/* columns rows colors chars-per-pixel */
"20 20 90 1 ",
"  c #080A16",
". c #01121A",
"X c #020727",
"o c #020A24",
"O c #030A2B",
"+ c #090D2B",
"@ c #011120",
"# c #0B122C",
"$ c #020534",
"% c #040932",
"& c #090D34",
"* c #01023C",
"= c #09043A",
"- c #010B3E",
"; c #0A0D3D",
": c #001336",
"> c #081A32",
", c #19203D",
"< c #030445",
"1 c #080743",
"2 c #070840",
"3 c #0B0A45",
"4 c #03044C",
"5 c #0C074A",
"6 c #040D4E",
"7 c #0B0A4F",
"8 c #110E47",
"9 c #0F1040",
"0 c #07114C",
"q c #141244",
"w c #17184E",
"e c #010253",
"r c #040B53",
"t c #090A53",
"y c #01025C",
"u c #050C5D",
"i c #0B0B5C",
"p c #160C53",
"a c #1F1F55",
"s c #1D235F",
"d c #27274B",
"f c #020264",
"g c #080262",
"h c #0A0A63",
"j c #02026C",
"k c #0B066A",
"l c #09086E",
"z c #100A6C",
"x c #151565",
"c c #14146B",
"v c #1A156F",
"b c #141B6B",
"n c #020174",
"m c #0B0476",
"M c #050975",
"N c #0C0974",
"B c #03037B",
"V c #0A077D",
"C c #07087E",
"Z c #120B7B",
"A c #141671",
"S c #151974",
"D c #191876",
"F c #211F73",
"G c #020184",
"H c #0C0384",
"J c #060985",
"K c #090B86",
"L c #02018C",
"P c #0A048C",
"I c #070A8F",
"U c #09098B",
"Y c #141782",
"T c #12148B",
"R c #020194",
"E c #080592",
"W c #050991",
"Q c #01009B",
"! c #0B099A",
"~ c #171698",
"^ c #231E82",
"/ c #0201A4",
"( c #0101AC",
") c #0201B5",
"_ c #0101BC",
"` c #0900BB",
"' c #1000B0",
"] c #0100C4",
"[ c #0000CA",
"{ c #0200D2",
/* pixels */
"M(QLRRfc(LBQQ/Q/p!(n",
"fQRGGn*tGBgjf1=%;(Q<",
"n(QLLn*i]((/QuJR#(Q<",
"jQBjff*h_/)Bj-GG1LGy",
"eje<*4*t)GRLj@JG+3&O",
"R/GnjLGm_/RGyOLf;mHQ",
"/QRGfQLeg5%<= =5-ej(",
"QRLneLn.WUUEKP6M[Mh_",
"Q(Rm*-%3_]_//L-B_fN]",
"RLjj$hPq_(RGGj$H_yl(",
"PByj<VR&_/LGmeXZ)4uR",
"Rne<XVL+6<-%%$XH(4k/",
"e444OCR&KIEBMHtZ(*7n",
"N//`j0fO{[)RGRyuL*5e",
"K_/`l>r3_((LnnO;:+3-",
"U(//jUQq(()Qjy$k)('j",
"!)/L6JL&(RLGLfom]/Le",
"U(IR<JG2)QGnnf$P(Ln<",
"HLBG<MB1(Lnyyy%H/LBe",
"FAbvasDd~Ycxcx,^TScw"
};
