/* XPM */
static char *_5552_afedc2ca2e52edcd754006cca398949ceb579ca89f6790a4f08abacfc3963296[] = {
/* columns rows colors chars-per-pixel */
"20 20 156 2 ",
"   c #1D1C1A",
".  c #372D0A",
"X  c #3D3109",
"o  c #21211F",
"O  c #372B13",
"+  c #3B2D15",
"@  c #372F18",
"#  c #3E2E1B",
"$  c #3D3314",
"%  c #3A311C",
"&  c #232524",
"*  c #2A2A2D",
"=  c #2C302F",
"-  c #3A3522",
";  c #32332E",
":  c #2E2F31",
">  c #2C3033",
",  c #25333C",
"<  c #323230",
"1  c #3B3734",
"2  c #363837",
"3  c #3A3837",
"4  c #363638",
"5  c #383339",
"6  c #3D3B3C",
"7  c #432D04",
"8  c #43310B",
"9  c #48350B",
"0  c #483B0F",
"q  c #583608",
"w  c #422F11",
"e  c #433414",
"r  c #4A3515",
"t  c #493A13",
"y  c #45351C",
"u  c #4A361B",
"i  c #46391B",
"p  c #4A3B1C",
"a  c #543B16",
"s  c #5F3D17",
"d  c #533B1C",
"f  c #5C3F1E",
"g  c #613E19",
"h  c #403726",
"j  c #443923",
"k  c #4B3C26",
"l  c #453C29",
"z  c #4C3C2A",
"x  c #533F26",
"c  c #593E21",
"v  c #423F37",
"b  c #433D3A",
"n  c #4C3F3A",
"m  c #59411D",
"M  c #62421D",
"N  c #6A441E",
"B  c #4C412C",
"V  c #544226",
"C  c #5D4424",
"Z  c #5D4926",
"A  c #574328",
"S  c #5A442D",
"D  c #434134",
"F  c #4D4333",
"G  c #4E4935",
"H  c #4D453A",
"J  c #4E4B3E",
"K  c #564534",
"L  c #5B4734",
"P  c #5A4936",
"I  c #55473E",
"U  c #544A3B",
"Y  c #5D4D3C",
"T  c #634421",
"R  c #604528",
"E  c #6D4C2D",
"W  c #694E30",
"Q  c #614B3D",
"!  c #63513D",
"~  c #6B553D",
"^  c #6B593F",
"/  c #70563D",
"(  c #353D43",
")  c #3B3C44",
"_  c #3D4243",
"`  c #3F4448",
"'  c #434443",
"]  c #4A4544",
"[  c #4C4D46",
"{  c #46454A",
"}  c #49474C",
"|  c #454A4A",
" . c #4B4B4C",
".. c #534F44",
"X. c #5B4A43",
"o. c #514E4C",
"O. c #5C4E4D",
"+. c #4B504A",
"@. c #555144",
"#. c #5E5443",
"$. c #5F5943",
"%. c #54524D",
"&. c #5B544B",
"*. c #484453",
"=. c #4B4D53",
"-. c #414F5A",
";. c #4C4F58",
":. c #504F54",
">. c #4E5355",
",. c #4E525A",
"<. c #535453",
"1. c #5A5454",
"2. c #565954",
"3. c #5B5B55",
"4. c #54565C",
"5. c #5C535C",
"6. c #5B5B5B",
"7. c #665446",
"8. c #675841",
"9. c #645C4F",
"0. c #6C5C4A",
"q. c #645C54",
"w. c #695D53",
"e. c #615B59",
"r. c #69604F",
"t. c #636254",
"y. c #6C6354",
"u. c #6A6853",
"i. c #65635D",
"p. c #6C635B",
"a. c #6C685F",
"s. c #70635D",
"d. c #726B59",
"f. c #4F5762",
"g. c #535760",
"h. c #565962",
"j. c #5A5D60",
"k. c #5F6362",
"l. c #636466",
"z. c #6B6160",
"x. c #696A64",
"c. c #61696C",
"v. c #6C6B6A",
"b. c #796F66",
"n. c #74726C",
"m. c #79746E",
"M. c #656A70",
"N. c #756E76",
"B. c #786E77",
"V. c #6D7273",
"C. c #727374",
"Z. c #757378",
"A. c #75797A",
"S. c #807E81",
"D. c #888485",
"F. c #8C8A8B",
/* pixels */
"n.P m C C s s i z I w.z.1.* :.l.2.3.2.v.",
"j.z.V M s c z l 0.8.$ $ G n.4.6.o.6.2.=.",
" .6.&.d f F @.d.K e 0 X l m.<.'  .=. .} ",
"] >.C...&.a.0.p i r p + n B.{ +. .}  . .",
"{ i.6.>.C.0.u r i i r # O.N.| +.}  .[ [ ",
"<.q.t.' o.L r p p e . $ 8.&.' =.<.} ' ' ",
"B % &.%.1.q.j i i % h t.J t.i.) ' 6 ] @.",
"q i +.l.( c.U 7 e U 5.*.' x.F.5.5 ] 3...",
"d 9 j V.e.^ ^ b q.3.' 6 3 } h.g.M.B.X.r ",
"r X - A.v.Y % n.l.6 ` _ 3 9.7.X.u.y.z t ",
"k % %.l.%.s.b.2._ ] _ , _ ~ T T t A V p ",
"@ &.C.2.o.1.D.2.{ I v ( 2.E N d f S L @ ",
"9.S.4.%.i.=.4.i.) n H 4 q.E g S a Y p.U ",
"i.V.4.2. .>.=.<.-.) 1 } w.T N c m S 1 = ",
"} >.>.&.2.,.` ] x.&.2 k.s.L c c a U > & ",
"Z.V.2.&.3.| _ o.d l 3.6.& ..0.d k e.>.` ",
"L / ! [ =.] U B r O ..2 & * o.l.i.<.>.y.",
"f a V D [ U p p e z D & * & * %.x.g.[ #.",
"a T w @.q.j Z 8 j H < & : &   : | ,.J A ",
"R a P 1.e.L r r H b : > * & & & > h.#.M "
};
