/* XPM */
static char *_1039_f5b239933cf900970a6d4755384ba220bb3309677a8121e3b9c90aa9305c4ebf[] = {
/* columns rows colors chars-per-pixel */
"20 20 173 2 ",
"   c #32181B",
".  c #2F2116",
"X  c #3E211B",
"o  c #3C1D22",
"O  c #3B3127",
"+  c #39392F",
"@  c #2B3B38",
"#  c #3F3130",
"$  c #3C3A35",
"%  c #4C0500",
"&  c #450B09",
"*  c #5F0304",
"=  c #560901",
"-  c #4E1409",
";  c #57100C",
":  c #5E140E",
">  c #421615",
",  c #481210",
"<  c #45131F",
"1  c #4E161C",
"2  c #421B1E",
"3  c #4D1B19",
"4  c #561515",
"5  c #5A1414",
"6  c #561C15",
"7  c #5E1A17",
"8  c #55141C",
"9  c #5B161E",
"0  c #521B1D",
"q  c #5B1D1A",
"w  c #650502",
"e  c #6C0203",
"r  c #640906",
"t  c #660409",
"y  c #6B0309",
"u  c #740102",
"i  c #7B0202",
"p  c #750903",
"a  c #790801",
"s  c #720008",
"d  c #750C08",
"f  c #7F0E08",
"g  c #601005",
"h  c #6D160D",
"j  c #7D1306",
"k  c #700F18",
"l  c #681915",
"z  c #67141E",
"x  c #6C151B",
"c  c #621C1D",
"v  c #691A1D",
"b  c #751717",
"n  c #7D1514",
"m  c #7D111E",
"M  c #432117",
"N  c #43251D",
"B  c #4B221D",
"V  c #402D1F",
"C  c #542314",
"Z  c #52211D",
"A  c #5A221E",
"S  c #4B321E",
"D  c #72251F",
"F  c #4F1720",
"G  c #4D1F22",
"H  c #571521",
"J  c #5D1520",
"K  c #541C24",
"L  c #5C1D25",
"P  c #501F32",
"I  c #651B24",
"U  c #7B1C26",
"Y  c #452727",
"T  c #4D2422",
"R  c #4B2C24",
"E  c #43292C",
"W  c #532221",
"Q  c #5B2225",
"!  c #5C2B24",
"~  c #55232E",
"^  c #5E222A",
"/  c #5D2A2F",
"(  c #473624",
")  c #46352D",
"_  c #4F3D29",
"`  c #5B3125",
"'  c #553B24",
"]  c #56312B",
"[  c #523D2A",
"{  c #442F36",
"}  c #5B2B37",
"|  c #443336",
" . c #4A3234",
".. c #453C35",
"X. c #423639",
"o. c #423A39",
"O. c #533334",
"+. c #612425",
"@. c #682725",
"#. c #662D26",
"$. c #6C2921",
"%. c #63262B",
"&. c #69262D",
"*. c #682829",
"=. c #712321",
"-. c #7F2527",
";. c #712D22",
":. c #72252E",
">. c #7A232A",
",. c #742C2C",
"<. c #7C2D29",
"1. c #63322E",
"2. c #722C34",
"3. c #7F2830",
"4. c #623432",
"5. c #633B39",
"6. c #6E4237",
"7. c #493E42",
"8. c #4B3B48",
"9. c #593247",
"0. c #6E3641",
"q. c #394048",
"w. c #474B4E",
"e. c #495355",
"r. c #644042",
"t. c #840102",
"y. c #8C0001",
"u. c #870B03",
"i. c #890906",
"p. c #81010A",
"a. c #8F050A",
"s. c #8A0E0E",
"d. c #930201",
"f. c #9D0201",
"g. c #970902",
"h. c #9E0807",
"j. c #97050A",
"k. c #9E060C",
"l. c #940C0C",
"z. c #9B0D09",
"x. c #86150D",
"c. c #8D120C",
"v. c #951709",
"b. c #8B0711",
"n. c #840E11",
"m. c #8B0F12",
"M. c #9D0710",
"N. c #831314",
"B. c #8C1613",
"V. c #801815",
"C. c #83141C",
"Z. c #82181C",
"A. c #8C1819",
"S. c #961116",
"D. c #9F1910",
"F. c #A40002",
"G. c #AB0102",
"H. c #A40C0B",
"J. c #AA0E0F",
"K. c #B70000",
"L. c #B90705",
"P. c #A90411",
"I. c #A10B14",
"U. c #B50111",
"Y. c #83251B",
"T. c #970720",
"R. c #811C2A",
"E. c #862127",
"W. c #8A2722",
"Q. c #832B26",
"!. c #8B2926",
"~. c #882A2B",
"^. c #C60113",
/* pixels */
"2.-.<.:.8.Q.&.;.<.>.<.| 0.~.-.>.U ,.=.` ",
"J.G.F.y._ L.f.G.G.F.G.C W.K.f.i.G.F.G.d ",
"b i w % + b.w e e r * . +.e w w a * y & ",
"*.v A 8 } O.I c c Q A ^ 2.! &.U B R @.! ",
"f.d.g.F.i [ U.f.d.d.f.f.d.f.g.G.N ~.U.F.",
"u u s s % ) m.u i e p i w i s p   ,.y.i ",
"! I T W 6 9.%.q T { +.q q W K 6 Q O.c B ",
"D.G.l.f.G.S.f.F.h 6.^.y.F.k.b.f.f.d.j.: ",
"S.i w y.a i p.i < ,.l.i p.u a u t.i i = ",
"#.W K T Q Q W 6 o 4.Q q P 2 6 I 3 K K Y ",
"v.H.P.S R.I.z.g.d.z.u.k.] Y.h.l.l.l.k.s.",
"y.y.d.Y R.y.t.d.t.t.t.y.O !.j.p.y.d.d.t.",
"K 6 5 O / 4 6 Q 1 1 ~ 7 E 1.c I 6 c z 0 ",
"A.c.c.j x.u.c.V.n.b [ J.B.s.u.A.x.N.N.l ",
"P.i.u.y.d.t.i d.d.y ( G.p.y.t.i y.t.t.r ",
"$.1 8 q x 8 > - r 2 7.C H 3 9 4 ; 5 4   ",
"S.m Z.x.C. .5.h.N.n B.V.N.m R r.n.n.n.n ",
"y.t.t.y.y.5 D f.t.i y.t.y.t.: >.d.d.y.t.",
"e t t w s 1 %.d t t y r e t , %.u s e e ",
"..X.X... .q.e...o.o...$ # { @ w.$ $ $ $ "
};
