/* XPM */
static char *_4994_d34ee36843eb0ac529c5dbad331a5e0b6ed10adfdacc07af367ecd0f55f99f48[] = {
/* columns rows colors chars-per-pixel */
"20 20 198 2 ",
"   c #1F1B18",
".  c #1B211D",
"X  c #242E09",
"o  c #312E1F",
"O  c #373C1E",
"+  c #1C1622",
"@  c #2A2A26",
"#  c #2C2B29",
"$  c #252926",
"%  c #3B3424",
"&  c #34342C",
"*  c #3F3F27",
"=  c #2C2C34",
"-  c #272238",
";  c #312E39",
":  c #352F32",
">  c #2F3331",
",  c #323035",
"<  c #3D3C34",
"1  c #34353B",
"2  c #3C3C3C",
"3  c #373839",
"4  c #403F2D",
"5  c #403836",
"6  c #413F3D",
"7  c #3E4433",
"8  c #3D413C",
"9  c #5D5F0B",
"0  c #444C16",
"q  c #47461E",
"w  c #584B1E",
"e  c #5E600C",
"r  c #5D651A",
"t  c #616600",
"y  c #687104",
"u  c #616916",
"i  c #777A13",
"p  c #48452C",
"a  c #555728",
"s  c #44433D",
"d  c #4A4939",
"f  c #524D35",
"g  c #504B38",
"h  c #515634",
"j  c #5C5B34",
"k  c #53533A",
"l  c #595737",
"z  c #4A5328",
"x  c #635F3C",
"c  c #737828",
"v  c #64653A",
"b  c #62703D",
"n  c #393643",
"m  c #3D3B44",
"M  c #38364B",
"N  c #423D43",
"B  c #413E4B",
"V  c #413445",
"C  c #423C5E",
"Z  c #444644",
"A  c #494544",
"S  c #44414C",
"D  c #4B484C",
"F  c #4B4747",
"G  c #524B4C",
"H  c #504B45",
"J  c #4F5549",
"K  c #525147",
"L  c #53514B",
"P  c #5A5848",
"I  c #4A4B51",
"U  c #544E58",
"Y  c #545651",
"T  c #54545B",
"R  c #5A565D",
"E  c #59575B",
"W  c #625E42",
"Q  c #625C4E",
"!  c #615B56",
"~  c #666749",
"^  c #706746",
"/  c #707240",
"(  c #696656",
")  c #716D50",
"_  c #787B56",
"`  c #554B6D",
"'  c #5C5B62",
"]  c #585469",
"[  c #565074",
"{  c #675C6E",
"}  c #646461",
"|  c #6D676B",
" . c #746C6A",
".. c #737264",
"X. c #747468",
"o. c #6C6C74",
"O. c #6D7079",
"+. c #7B7874",
"@. c #736879",
"#. c #817D74",
"$. c #7B8B0F",
"%. c #7F881D",
"&. c #788432",
"*. c #7C8149",
"=. c #7C8277",
"-. c #819309",
";. c #939D0B",
":. c #82841F",
">. c #899A10",
",. c #898508",
"<. c #9EA903",
"1. c #A3A800",
"2. c #BEB500",
"3. c #848621",
"4. c #878F3C",
"5. c #8E943A",
"6. c #929639",
"7. c #9A9C37",
"8. c #94A223",
"9. c #A7AD20",
"0. c #A4AD3A",
"q. c #AEB33B",
"w. c #B8C52F",
"e. c #888848",
"r. c #938E48",
"t. c #969647",
"y. c #8A8E53",
"u. c #858759",
"i. c #9D9D5D",
"p. c #989653",
"a. c #AA9B4A",
"s. c #9CA45B",
"d. c #A6AA4E",
"f. c #B9BD4B",
"g. c #A7A555",
"h. c #ACB751",
"j. c #B2B85E",
"k. c #8C8E6D",
"l. c #918B6B",
"z. c #9A9563",
"x. c #979863",
"c. c #868373",
"v. c #8E8B73",
"b. c #86857E",
"n. c #898B7C",
"m. c #928370",
"M. c #8C9372",
"N. c #9B957C",
"B. c #9F9F79",
"V. c #96967A",
"C. c #A59C74",
"Z. c #99A06D",
"A. c #9EA178",
"S. c #A2A76D",
"D. c #A7A965",
"F. c #B1B56C",
"G. c #BFB36B",
"H. c #ABAD73",
"J. c #A6A27A",
"K. c #B1A77E",
"L. c #AEB178",
"P. c #BBB67C",
"I. c #A9B468",
"U. c #C6C278",
"Y. c #847E8C",
"T. c #858582",
"R. c #8C8580",
"E. c #8B8A81",
"W. c #8D898C",
"Q. c #928D82",
"!. c #918D8C",
"~. c #8F9082",
"^. c #9C9985",
"/. c #9C988B",
"(. c #989582",
"). c #8E8A93",
"_. c #998E91",
"`. c #9D9C94",
"'. c #9D9B97",
"]. c #A49C97",
"[. c #AAA685",
"{. c #ABA292",
"}. c #A8A599",
"|. c #BFAD95",
" X c #BBB994",
".X c #8C8FA2",
"XX c #9890A5",
"oX c #A099A0",
"OX c #A49BB5",
"+X c #ABABA6",
"@X c #B1ADA4",
"#X c #B4B1A9",
"$X c #BFBEA9",
"%X c #B8B2B4",
"&X c #C2BC8C",
"*X c #C3BEBB",
"=X c #C6C4AD",
"-X c #C7C0B6",
/* pixels */
"J T B #.;.r.[.p.h Y.(.$.~ 3 a x { f j G ",
"S.n.R /.9.p.H.B.f b. Xr.^ : ;.t.f.3.e.c.",
"'.W.; !.`.V.~.).N P ~ ' M & _ C.s...#.v.",
"' 8   V.+X6.(.(.s 3 v +.+.< T. .~ ' ' L ",
"n 1 3 ' #Xr._.n.V x f.&Xd.f s V m B n : ",
"d.0.( m ~.u.T.=.2 x V.e.Q < -.P 7.i.D.d.",
"g.%.F N T M M > X C ( p , A M.Z C.C.z.6.",
"p.).] 0 >.) R v 7.].K.1.t @.*Xj V.H.S.).",
"L L # k y.y.7 E.U.7.J.x.w ^ +Xz % q o V ",
"/ _ W.+.@Xv.H | q.c..Xt.2 e. X8 v y j s ",
"t.N.5...#X^.k D G.4._.t.% m.d.4 [.8.y.P ",
"OXN.c | }.V.l O '._ X.~ @ R a F  .Q { Z ",
"L.i.c ' +XW.o.$ L j d I E O.b u ^ W j M ",
":.`.*.N }.n...$ ,.2.1.K.&X].|.9.F.j.8.R ",
"..n.] m oX'.}   b.g.i u.{.].D.Q.z.^.u.m ",
"D d % 1 M m ; + o..X_ 4.OXF.p.}.].[.k.2 ",
"p.w.x.k.c 9 9 G ' U p 6 F d F A S S S < ",
"].%XL.=X*XF.D.C.$XS.` k u ' s r a k Y I ",
"} T 0 J [ L E E D z - h &.T. .x.h.s.k.R ",
"S & > > # $ = @ > ; @ n 2 & 3 H p 4 6 ; "
};
